%TF.GenerationSoftware,KiCad,Pcbnew,7.0.1*%
%TF.CreationDate,2023-04-12T17:20:58-07:00*%
%TF.ProjectId,Lab 3,4c616220-332e-46b6-9963-61645f706362,rev?*%
%TF.SameCoordinates,Original*%
%TF.FileFunction,Copper,L2,Bot*%
%TF.FilePolarity,Positive*%
%FSLAX46Y46*%
G04 Gerber Fmt 4.6, Leading zero omitted, Abs format (unit mm)*
G04 Created by KiCad (PCBNEW 7.0.1) date 2023-04-12 17:20:58*
%MOMM*%
%LPD*%
G01*
G04 APERTURE LIST*
G04 Aperture macros list*
%AMRoundRect*
0 Rectangle with rounded corners*
0 $1 Rounding radius*
0 $2 $3 $4 $5 $6 $7 $8 $9 X,Y pos of 4 corners*
0 Add a 4 corners polygon primitive as box body*
4,1,4,$2,$3,$4,$5,$6,$7,$8,$9,$2,$3,0*
0 Add four circle primitives for the rounded corners*
1,1,$1+$1,$2,$3*
1,1,$1+$1,$4,$5*
1,1,$1+$1,$6,$7*
1,1,$1+$1,$8,$9*
0 Add four rect primitives between the rounded corners*
20,1,$1+$1,$2,$3,$4,$5,0*
20,1,$1+$1,$4,$5,$6,$7,0*
20,1,$1+$1,$6,$7,$8,$9,0*
20,1,$1+$1,$8,$9,$2,$3,0*%
G04 Aperture macros list end*
%TA.AperFunction,ComponentPad*%
%ADD10RoundRect,0.250000X-0.600000X-0.750000X0.600000X-0.750000X0.600000X0.750000X-0.600000X0.750000X0*%
%TD*%
%TA.AperFunction,ComponentPad*%
%ADD11O,1.700000X2.000000*%
%TD*%
%TA.AperFunction,ViaPad*%
%ADD12C,0.800000*%
%TD*%
%TA.AperFunction,Conductor*%
%ADD13C,0.250000*%
%TD*%
G04 APERTURE END LIST*
D10*
%TO.P,J1,1,Pin_1*%
%TO.N,+9V*%
X152400000Y-73660000D03*
D11*
%TO.P,J1,2,Pin_2*%
%TO.N,GND*%
X154900000Y-73660000D03*
%TD*%
D12*
%TO.N,/pin_7*%
X147320000Y-83820000D03*
%TO.N,/pin_2*%
X149860000Y-93980000D03*
X157480000Y-78740000D03*
%TO.N,/pin_7*%
X157480000Y-81280000D03*
%TO.N,Net-(U1-CV)*%
X144780000Y-91440000D03*
X154940000Y-91440000D03*
%TO.N,GND*%
X147320000Y-91440000D03*
X154940000Y-81280000D03*
%TD*%
D13*
%TO.N,/pin_7*%
X153725000Y-77415000D02*
X147320000Y-83820000D01*
X153725000Y-73023299D02*
X153725000Y-77415000D01*
X154413299Y-72335000D02*
X153725000Y-73023299D01*
X155386701Y-72335000D02*
X154413299Y-72335000D01*
X158205000Y-80555000D02*
X158205000Y-75153299D01*
X158205000Y-75153299D02*
X155386701Y-72335000D01*
X157480000Y-81280000D02*
X158205000Y-80555000D01*
%TO.N,/pin_2*%
X155665000Y-91740305D02*
X153425305Y-93980000D01*
X155665000Y-81580305D02*
X155665000Y-91740305D01*
X153425305Y-93980000D02*
X149860000Y-93980000D01*
X157480000Y-79765305D02*
X155665000Y-81580305D01*
X157480000Y-78740000D02*
X157480000Y-79765305D01*
%TO.N,Net-(U1-CV)*%
X145505000Y-92165000D02*
X144780000Y-91440000D01*
X154215000Y-92165000D02*
X145505000Y-92165000D01*
X154940000Y-91440000D02*
X154215000Y-92165000D01*
%TO.N,GND*%
X147320000Y-88900000D02*
X154940000Y-81280000D01*
X147320000Y-91440000D02*
X147320000Y-88900000D01*
X154940000Y-81280000D02*
X154900000Y-81240000D01*
X154900000Y-81240000D02*
X154900000Y-73660000D01*
%TD*%
M02*
