%TF.GenerationSoftware,KiCad,Pcbnew,7.0.1*%
%TF.CreationDate,2023-04-12T17:20:58-07:00*%
%TF.ProjectId,Lab 3,4c616220-332e-46b6-9963-61645f706362,rev?*%
%TF.SameCoordinates,Original*%
%TF.FileFunction,Legend,Top*%
%TF.FilePolarity,Positive*%
%FSLAX46Y46*%
G04 Gerber Fmt 4.6, Leading zero omitted, Abs format (unit mm)*
G04 Created by KiCad (PCBNEW 7.0.1) date 2023-04-12 17:20:58*
%MOMM*%
%LPD*%
G01*
G04 APERTURE LIST*
%ADD10C,0.150000*%
%ADD11C,0.120000*%
G04 APERTURE END LIST*
D10*
X143927619Y-63402095D02*
X143660952Y-63021142D01*
X143470476Y-63402095D02*
X143470476Y-62602095D01*
X143470476Y-62602095D02*
X143775238Y-62602095D01*
X143775238Y-62602095D02*
X143851428Y-62640190D01*
X143851428Y-62640190D02*
X143889523Y-62678285D01*
X143889523Y-62678285D02*
X143927619Y-62754476D01*
X143927619Y-62754476D02*
X143927619Y-62868761D01*
X143927619Y-62868761D02*
X143889523Y-62944952D01*
X143889523Y-62944952D02*
X143851428Y-62983047D01*
X143851428Y-62983047D02*
X143775238Y-63021142D01*
X143775238Y-63021142D02*
X143470476Y-63021142D01*
X144270476Y-63402095D02*
X144270476Y-62868761D01*
X144270476Y-62602095D02*
X144232380Y-62640190D01*
X144232380Y-62640190D02*
X144270476Y-62678285D01*
X144270476Y-62678285D02*
X144308571Y-62640190D01*
X144308571Y-62640190D02*
X144270476Y-62602095D01*
X144270476Y-62602095D02*
X144270476Y-62678285D01*
X144765713Y-63402095D02*
X144689523Y-63364000D01*
X144689523Y-63364000D02*
X144651428Y-63287809D01*
X144651428Y-63287809D02*
X144651428Y-62602095D01*
X145375238Y-63364000D02*
X145299047Y-63402095D01*
X145299047Y-63402095D02*
X145146666Y-63402095D01*
X145146666Y-63402095D02*
X145070476Y-63364000D01*
X145070476Y-63364000D02*
X145032380Y-63287809D01*
X145032380Y-63287809D02*
X145032380Y-62983047D01*
X145032380Y-62983047D02*
X145070476Y-62906857D01*
X145070476Y-62906857D02*
X145146666Y-62868761D01*
X145146666Y-62868761D02*
X145299047Y-62868761D01*
X145299047Y-62868761D02*
X145375238Y-62906857D01*
X145375238Y-62906857D02*
X145413333Y-62983047D01*
X145413333Y-62983047D02*
X145413333Y-63059238D01*
X145413333Y-63059238D02*
X145032380Y-63135428D01*
X145679999Y-62868761D02*
X145870475Y-63402095D01*
X146060952Y-62868761D02*
X145870475Y-63402095D01*
X145870475Y-63402095D02*
X145794285Y-63592571D01*
X145794285Y-63592571D02*
X145756190Y-63630666D01*
X145756190Y-63630666D02*
X145679999Y-63668761D01*
X146975238Y-62983047D02*
X147241904Y-62983047D01*
X147356190Y-63402095D02*
X146975238Y-63402095D01*
X146975238Y-63402095D02*
X146975238Y-62602095D01*
X146975238Y-62602095D02*
X147356190Y-62602095D01*
X147660952Y-63364000D02*
X147737143Y-63402095D01*
X147737143Y-63402095D02*
X147889524Y-63402095D01*
X147889524Y-63402095D02*
X147965714Y-63364000D01*
X147965714Y-63364000D02*
X148003810Y-63287809D01*
X148003810Y-63287809D02*
X148003810Y-63249714D01*
X148003810Y-63249714D02*
X147965714Y-63173523D01*
X147965714Y-63173523D02*
X147889524Y-63135428D01*
X147889524Y-63135428D02*
X147775238Y-63135428D01*
X147775238Y-63135428D02*
X147699048Y-63097333D01*
X147699048Y-63097333D02*
X147660952Y-63021142D01*
X147660952Y-63021142D02*
X147660952Y-62983047D01*
X147660952Y-62983047D02*
X147699048Y-62906857D01*
X147699048Y-62906857D02*
X147775238Y-62868761D01*
X147775238Y-62868761D02*
X147889524Y-62868761D01*
X147889524Y-62868761D02*
X147965714Y-62906857D01*
X148232381Y-62868761D02*
X148537143Y-62868761D01*
X148346667Y-62602095D02*
X148346667Y-63287809D01*
X148346667Y-63287809D02*
X148384762Y-63364000D01*
X148384762Y-63364000D02*
X148460952Y-63402095D01*
X148460952Y-63402095D02*
X148537143Y-63402095D01*
X149108572Y-63364000D02*
X149032381Y-63402095D01*
X149032381Y-63402095D02*
X148880000Y-63402095D01*
X148880000Y-63402095D02*
X148803810Y-63364000D01*
X148803810Y-63364000D02*
X148765714Y-63287809D01*
X148765714Y-63287809D02*
X148765714Y-62983047D01*
X148765714Y-62983047D02*
X148803810Y-62906857D01*
X148803810Y-62906857D02*
X148880000Y-62868761D01*
X148880000Y-62868761D02*
X149032381Y-62868761D01*
X149032381Y-62868761D02*
X149108572Y-62906857D01*
X149108572Y-62906857D02*
X149146667Y-62983047D01*
X149146667Y-62983047D02*
X149146667Y-63059238D01*
X149146667Y-63059238D02*
X148765714Y-63135428D01*
X149451428Y-63364000D02*
X149527619Y-63402095D01*
X149527619Y-63402095D02*
X149680000Y-63402095D01*
X149680000Y-63402095D02*
X149756190Y-63364000D01*
X149756190Y-63364000D02*
X149794286Y-63287809D01*
X149794286Y-63287809D02*
X149794286Y-63249714D01*
X149794286Y-63249714D02*
X149756190Y-63173523D01*
X149756190Y-63173523D02*
X149680000Y-63135428D01*
X149680000Y-63135428D02*
X149565714Y-63135428D01*
X149565714Y-63135428D02*
X149489524Y-63097333D01*
X149489524Y-63097333D02*
X149451428Y-63021142D01*
X149451428Y-63021142D02*
X149451428Y-62983047D01*
X149451428Y-62983047D02*
X149489524Y-62906857D01*
X149489524Y-62906857D02*
X149565714Y-62868761D01*
X149565714Y-62868761D02*
X149680000Y-62868761D01*
X149680000Y-62868761D02*
X149756190Y-62906857D01*
X151356191Y-63402095D02*
X151356191Y-62602095D01*
X151813334Y-63402095D02*
X151470476Y-62944952D01*
X151813334Y-62602095D02*
X151356191Y-63059238D01*
X152156191Y-63402095D02*
X152156191Y-62868761D01*
X152156191Y-62602095D02*
X152118095Y-62640190D01*
X152118095Y-62640190D02*
X152156191Y-62678285D01*
X152156191Y-62678285D02*
X152194286Y-62640190D01*
X152194286Y-62640190D02*
X152156191Y-62602095D01*
X152156191Y-62602095D02*
X152156191Y-62678285D01*
X152841905Y-63364000D02*
X152765714Y-63402095D01*
X152765714Y-63402095D02*
X152613333Y-63402095D01*
X152613333Y-63402095D02*
X152537143Y-63364000D01*
X152537143Y-63364000D02*
X152499047Y-63287809D01*
X152499047Y-63287809D02*
X152499047Y-62983047D01*
X152499047Y-62983047D02*
X152537143Y-62906857D01*
X152537143Y-62906857D02*
X152613333Y-62868761D01*
X152613333Y-62868761D02*
X152765714Y-62868761D01*
X152765714Y-62868761D02*
X152841905Y-62906857D01*
X152841905Y-62906857D02*
X152880000Y-62983047D01*
X152880000Y-62983047D02*
X152880000Y-63059238D01*
X152880000Y-63059238D02*
X152499047Y-63135428D01*
X153108571Y-62868761D02*
X153413333Y-62868761D01*
X153222857Y-62602095D02*
X153222857Y-63287809D01*
X153222857Y-63287809D02*
X153260952Y-63364000D01*
X153260952Y-63364000D02*
X153337142Y-63402095D01*
X153337142Y-63402095D02*
X153413333Y-63402095D01*
X154175238Y-62602095D02*
X154632381Y-62602095D01*
X154403809Y-63402095D02*
X154403809Y-62602095D01*
X154899048Y-63402095D02*
X154899048Y-62868761D01*
X154899048Y-63021142D02*
X154937143Y-62944952D01*
X154937143Y-62944952D02*
X154975238Y-62906857D01*
X154975238Y-62906857D02*
X155051429Y-62868761D01*
X155051429Y-62868761D02*
X155127619Y-62868761D01*
X155737143Y-63402095D02*
X155737143Y-62983047D01*
X155737143Y-62983047D02*
X155699048Y-62906857D01*
X155699048Y-62906857D02*
X155622857Y-62868761D01*
X155622857Y-62868761D02*
X155470476Y-62868761D01*
X155470476Y-62868761D02*
X155394286Y-62906857D01*
X155737143Y-63364000D02*
X155660952Y-63402095D01*
X155660952Y-63402095D02*
X155470476Y-63402095D01*
X155470476Y-63402095D02*
X155394286Y-63364000D01*
X155394286Y-63364000D02*
X155356190Y-63287809D01*
X155356190Y-63287809D02*
X155356190Y-63211619D01*
X155356190Y-63211619D02*
X155394286Y-63135428D01*
X155394286Y-63135428D02*
X155470476Y-63097333D01*
X155470476Y-63097333D02*
X155660952Y-63097333D01*
X155660952Y-63097333D02*
X155737143Y-63059238D01*
X156118096Y-62868761D02*
X156118096Y-63402095D01*
X156118096Y-62944952D02*
X156156191Y-62906857D01*
X156156191Y-62906857D02*
X156232381Y-62868761D01*
X156232381Y-62868761D02*
X156346667Y-62868761D01*
X156346667Y-62868761D02*
X156422858Y-62906857D01*
X156422858Y-62906857D02*
X156460953Y-62983047D01*
X156460953Y-62983047D02*
X156460953Y-63402095D01*
X158518097Y-63402095D02*
X158251430Y-63021142D01*
X158060954Y-63402095D02*
X158060954Y-62602095D01*
X158060954Y-62602095D02*
X158365716Y-62602095D01*
X158365716Y-62602095D02*
X158441906Y-62640190D01*
X158441906Y-62640190D02*
X158480001Y-62678285D01*
X158480001Y-62678285D02*
X158518097Y-62754476D01*
X158518097Y-62754476D02*
X158518097Y-62868761D01*
X158518097Y-62868761D02*
X158480001Y-62944952D01*
X158480001Y-62944952D02*
X158441906Y-62983047D01*
X158441906Y-62983047D02*
X158365716Y-63021142D01*
X158365716Y-63021142D02*
X158060954Y-63021142D01*
X158860954Y-63402095D02*
X158860954Y-62868761D01*
X158860954Y-62602095D02*
X158822858Y-62640190D01*
X158822858Y-62640190D02*
X158860954Y-62678285D01*
X158860954Y-62678285D02*
X158899049Y-62640190D01*
X158899049Y-62640190D02*
X158860954Y-62602095D01*
X158860954Y-62602095D02*
X158860954Y-62678285D01*
X159584763Y-63402095D02*
X159584763Y-62983047D01*
X159584763Y-62983047D02*
X159546668Y-62906857D01*
X159546668Y-62906857D02*
X159470477Y-62868761D01*
X159470477Y-62868761D02*
X159318096Y-62868761D01*
X159318096Y-62868761D02*
X159241906Y-62906857D01*
X159584763Y-63364000D02*
X159508572Y-63402095D01*
X159508572Y-63402095D02*
X159318096Y-63402095D01*
X159318096Y-63402095D02*
X159241906Y-63364000D01*
X159241906Y-63364000D02*
X159203810Y-63287809D01*
X159203810Y-63287809D02*
X159203810Y-63211619D01*
X159203810Y-63211619D02*
X159241906Y-63135428D01*
X159241906Y-63135428D02*
X159318096Y-63097333D01*
X159318096Y-63097333D02*
X159508572Y-63097333D01*
X159508572Y-63097333D02*
X159584763Y-63059238D01*
X159965716Y-62868761D02*
X159965716Y-63402095D01*
X159965716Y-62944952D02*
X160003811Y-62906857D01*
X160003811Y-62906857D02*
X160080001Y-62868761D01*
X160080001Y-62868761D02*
X160194287Y-62868761D01*
X160194287Y-62868761D02*
X160270478Y-62906857D01*
X160270478Y-62906857D02*
X160308573Y-62983047D01*
X160308573Y-62983047D02*
X160308573Y-63402095D01*
X161756193Y-63402095D02*
X161489526Y-63021142D01*
X161299050Y-63402095D02*
X161299050Y-62602095D01*
X161299050Y-62602095D02*
X161603812Y-62602095D01*
X161603812Y-62602095D02*
X161680002Y-62640190D01*
X161680002Y-62640190D02*
X161718097Y-62678285D01*
X161718097Y-62678285D02*
X161756193Y-62754476D01*
X161756193Y-62754476D02*
X161756193Y-62868761D01*
X161756193Y-62868761D02*
X161718097Y-62944952D01*
X161718097Y-62944952D02*
X161680002Y-62983047D01*
X161680002Y-62983047D02*
X161603812Y-63021142D01*
X161603812Y-63021142D02*
X161299050Y-63021142D01*
X162099050Y-63402095D02*
X162099050Y-62868761D01*
X162099050Y-62602095D02*
X162060954Y-62640190D01*
X162060954Y-62640190D02*
X162099050Y-62678285D01*
X162099050Y-62678285D02*
X162137145Y-62640190D01*
X162137145Y-62640190D02*
X162099050Y-62602095D01*
X162099050Y-62602095D02*
X162099050Y-62678285D01*
X162365716Y-62868761D02*
X162670478Y-62868761D01*
X162480002Y-62602095D02*
X162480002Y-63287809D01*
X162480002Y-63287809D02*
X162518097Y-63364000D01*
X162518097Y-63364000D02*
X162594287Y-63402095D01*
X162594287Y-63402095D02*
X162670478Y-63402095D01*
X162822859Y-62868761D02*
X163127621Y-62868761D01*
X162937145Y-62602095D02*
X162937145Y-63287809D01*
X162937145Y-63287809D02*
X162975240Y-63364000D01*
X162975240Y-63364000D02*
X163051430Y-63402095D01*
X163051430Y-63402095D02*
X163127621Y-63402095D01*
X163699050Y-63364000D02*
X163622859Y-63402095D01*
X163622859Y-63402095D02*
X163470478Y-63402095D01*
X163470478Y-63402095D02*
X163394288Y-63364000D01*
X163394288Y-63364000D02*
X163356192Y-63287809D01*
X163356192Y-63287809D02*
X163356192Y-62983047D01*
X163356192Y-62983047D02*
X163394288Y-62906857D01*
X163394288Y-62906857D02*
X163470478Y-62868761D01*
X163470478Y-62868761D02*
X163622859Y-62868761D01*
X163622859Y-62868761D02*
X163699050Y-62906857D01*
X163699050Y-62906857D02*
X163737145Y-62983047D01*
X163737145Y-62983047D02*
X163737145Y-63059238D01*
X163737145Y-63059238D02*
X163356192Y-63135428D01*
X164080002Y-63402095D02*
X164080002Y-62868761D01*
X164080002Y-63021142D02*
X164118097Y-62944952D01*
X164118097Y-62944952D02*
X164156192Y-62906857D01*
X164156192Y-62906857D02*
X164232383Y-62868761D01*
X164232383Y-62868761D02*
X164308573Y-62868761D01*
%TO.C,U1*%
X153608095Y-83172619D02*
X153608095Y-83982142D01*
X153608095Y-83982142D02*
X153655714Y-84077380D01*
X153655714Y-84077380D02*
X153703333Y-84125000D01*
X153703333Y-84125000D02*
X153798571Y-84172619D01*
X153798571Y-84172619D02*
X153989047Y-84172619D01*
X153989047Y-84172619D02*
X154084285Y-84125000D01*
X154084285Y-84125000D02*
X154131904Y-84077380D01*
X154131904Y-84077380D02*
X154179523Y-83982142D01*
X154179523Y-83982142D02*
X154179523Y-83172619D01*
X155179523Y-84172619D02*
X154608095Y-84172619D01*
X154893809Y-84172619D02*
X154893809Y-83172619D01*
X154893809Y-83172619D02*
X154798571Y-83315476D01*
X154798571Y-83315476D02*
X154703333Y-83410714D01*
X154703333Y-83410714D02*
X154608095Y-83458333D01*
%TO.C,R4*%
X164672619Y-89066666D02*
X164196428Y-89399999D01*
X164672619Y-89638094D02*
X163672619Y-89638094D01*
X163672619Y-89638094D02*
X163672619Y-89257142D01*
X163672619Y-89257142D02*
X163720238Y-89161904D01*
X163720238Y-89161904D02*
X163767857Y-89114285D01*
X163767857Y-89114285D02*
X163863095Y-89066666D01*
X163863095Y-89066666D02*
X164005952Y-89066666D01*
X164005952Y-89066666D02*
X164101190Y-89114285D01*
X164101190Y-89114285D02*
X164148809Y-89161904D01*
X164148809Y-89161904D02*
X164196428Y-89257142D01*
X164196428Y-89257142D02*
X164196428Y-89638094D01*
X164005952Y-88209523D02*
X164672619Y-88209523D01*
X163625000Y-88447618D02*
X164339285Y-88685713D01*
X164339285Y-88685713D02*
X164339285Y-88066666D01*
%TO.C,R3*%
X146892619Y-86526666D02*
X146416428Y-86859999D01*
X146892619Y-87098094D02*
X145892619Y-87098094D01*
X145892619Y-87098094D02*
X145892619Y-86717142D01*
X145892619Y-86717142D02*
X145940238Y-86621904D01*
X145940238Y-86621904D02*
X145987857Y-86574285D01*
X145987857Y-86574285D02*
X146083095Y-86526666D01*
X146083095Y-86526666D02*
X146225952Y-86526666D01*
X146225952Y-86526666D02*
X146321190Y-86574285D01*
X146321190Y-86574285D02*
X146368809Y-86621904D01*
X146368809Y-86621904D02*
X146416428Y-86717142D01*
X146416428Y-86717142D02*
X146416428Y-87098094D01*
X145892619Y-86193332D02*
X145892619Y-85574285D01*
X145892619Y-85574285D02*
X146273571Y-85907618D01*
X146273571Y-85907618D02*
X146273571Y-85764761D01*
X146273571Y-85764761D02*
X146321190Y-85669523D01*
X146321190Y-85669523D02*
X146368809Y-85621904D01*
X146368809Y-85621904D02*
X146464047Y-85574285D01*
X146464047Y-85574285D02*
X146702142Y-85574285D01*
X146702142Y-85574285D02*
X146797380Y-85621904D01*
X146797380Y-85621904D02*
X146845000Y-85669523D01*
X146845000Y-85669523D02*
X146892619Y-85764761D01*
X146892619Y-85764761D02*
X146892619Y-86050475D01*
X146892619Y-86050475D02*
X146845000Y-86145713D01*
X146845000Y-86145713D02*
X146797380Y-86193332D01*
%TO.C,R2*%
X164672619Y-83986666D02*
X164196428Y-84319999D01*
X164672619Y-84558094D02*
X163672619Y-84558094D01*
X163672619Y-84558094D02*
X163672619Y-84177142D01*
X163672619Y-84177142D02*
X163720238Y-84081904D01*
X163720238Y-84081904D02*
X163767857Y-84034285D01*
X163767857Y-84034285D02*
X163863095Y-83986666D01*
X163863095Y-83986666D02*
X164005952Y-83986666D01*
X164005952Y-83986666D02*
X164101190Y-84034285D01*
X164101190Y-84034285D02*
X164148809Y-84081904D01*
X164148809Y-84081904D02*
X164196428Y-84177142D01*
X164196428Y-84177142D02*
X164196428Y-84558094D01*
X163767857Y-83605713D02*
X163720238Y-83558094D01*
X163720238Y-83558094D02*
X163672619Y-83462856D01*
X163672619Y-83462856D02*
X163672619Y-83224761D01*
X163672619Y-83224761D02*
X163720238Y-83129523D01*
X163720238Y-83129523D02*
X163767857Y-83081904D01*
X163767857Y-83081904D02*
X163863095Y-83034285D01*
X163863095Y-83034285D02*
X163958333Y-83034285D01*
X163958333Y-83034285D02*
X164101190Y-83081904D01*
X164101190Y-83081904D02*
X164672619Y-83653332D01*
X164672619Y-83653332D02*
X164672619Y-83034285D01*
%TO.C,R1*%
X146892619Y-81446666D02*
X146416428Y-81779999D01*
X146892619Y-82018094D02*
X145892619Y-82018094D01*
X145892619Y-82018094D02*
X145892619Y-81637142D01*
X145892619Y-81637142D02*
X145940238Y-81541904D01*
X145940238Y-81541904D02*
X145987857Y-81494285D01*
X145987857Y-81494285D02*
X146083095Y-81446666D01*
X146083095Y-81446666D02*
X146225952Y-81446666D01*
X146225952Y-81446666D02*
X146321190Y-81494285D01*
X146321190Y-81494285D02*
X146368809Y-81541904D01*
X146368809Y-81541904D02*
X146416428Y-81637142D01*
X146416428Y-81637142D02*
X146416428Y-82018094D01*
X146892619Y-80494285D02*
X146892619Y-81065713D01*
X146892619Y-80779999D02*
X145892619Y-80779999D01*
X145892619Y-80779999D02*
X146035476Y-80875237D01*
X146035476Y-80875237D02*
X146130714Y-80970475D01*
X146130714Y-80970475D02*
X146178333Y-81065713D01*
%TO.C,J1*%
X153316666Y-65222619D02*
X153316666Y-65936904D01*
X153316666Y-65936904D02*
X153269047Y-66079761D01*
X153269047Y-66079761D02*
X153173809Y-66175000D01*
X153173809Y-66175000D02*
X153030952Y-66222619D01*
X153030952Y-66222619D02*
X152935714Y-66222619D01*
X154316666Y-66222619D02*
X153745238Y-66222619D01*
X154030952Y-66222619D02*
X154030952Y-65222619D01*
X154030952Y-65222619D02*
X153935714Y-65365476D01*
X153935714Y-65365476D02*
X153840476Y-65460714D01*
X153840476Y-65460714D02*
X153745238Y-65508333D01*
%TO.C,D2*%
X161202619Y-94718094D02*
X160202619Y-94718094D01*
X160202619Y-94718094D02*
X160202619Y-94479999D01*
X160202619Y-94479999D02*
X160250238Y-94337142D01*
X160250238Y-94337142D02*
X160345476Y-94241904D01*
X160345476Y-94241904D02*
X160440714Y-94194285D01*
X160440714Y-94194285D02*
X160631190Y-94146666D01*
X160631190Y-94146666D02*
X160774047Y-94146666D01*
X160774047Y-94146666D02*
X160964523Y-94194285D01*
X160964523Y-94194285D02*
X161059761Y-94241904D01*
X161059761Y-94241904D02*
X161155000Y-94337142D01*
X161155000Y-94337142D02*
X161202619Y-94479999D01*
X161202619Y-94479999D02*
X161202619Y-94718094D01*
X160297857Y-93765713D02*
X160250238Y-93718094D01*
X160250238Y-93718094D02*
X160202619Y-93622856D01*
X160202619Y-93622856D02*
X160202619Y-93384761D01*
X160202619Y-93384761D02*
X160250238Y-93289523D01*
X160250238Y-93289523D02*
X160297857Y-93241904D01*
X160297857Y-93241904D02*
X160393095Y-93194285D01*
X160393095Y-93194285D02*
X160488333Y-93194285D01*
X160488333Y-93194285D02*
X160631190Y-93241904D01*
X160631190Y-93241904D02*
X161202619Y-93813332D01*
X161202619Y-93813332D02*
X161202619Y-93194285D01*
%TO.C,D1*%
X161202619Y-79478094D02*
X160202619Y-79478094D01*
X160202619Y-79478094D02*
X160202619Y-79239999D01*
X160202619Y-79239999D02*
X160250238Y-79097142D01*
X160250238Y-79097142D02*
X160345476Y-79001904D01*
X160345476Y-79001904D02*
X160440714Y-78954285D01*
X160440714Y-78954285D02*
X160631190Y-78906666D01*
X160631190Y-78906666D02*
X160774047Y-78906666D01*
X160774047Y-78906666D02*
X160964523Y-78954285D01*
X160964523Y-78954285D02*
X161059761Y-79001904D01*
X161059761Y-79001904D02*
X161155000Y-79097142D01*
X161155000Y-79097142D02*
X161202619Y-79239999D01*
X161202619Y-79239999D02*
X161202619Y-79478094D01*
X161202619Y-77954285D02*
X161202619Y-78525713D01*
X161202619Y-78239999D02*
X160202619Y-78239999D01*
X160202619Y-78239999D02*
X160345476Y-78335237D01*
X160345476Y-78335237D02*
X160440714Y-78430475D01*
X160440714Y-78430475D02*
X160488333Y-78525713D01*
%TO.C,C2*%
X153670833Y-92597380D02*
X153623214Y-92645000D01*
X153623214Y-92645000D02*
X153480357Y-92692619D01*
X153480357Y-92692619D02*
X153385119Y-92692619D01*
X153385119Y-92692619D02*
X153242262Y-92645000D01*
X153242262Y-92645000D02*
X153147024Y-92549761D01*
X153147024Y-92549761D02*
X153099405Y-92454523D01*
X153099405Y-92454523D02*
X153051786Y-92264047D01*
X153051786Y-92264047D02*
X153051786Y-92121190D01*
X153051786Y-92121190D02*
X153099405Y-91930714D01*
X153099405Y-91930714D02*
X153147024Y-91835476D01*
X153147024Y-91835476D02*
X153242262Y-91740238D01*
X153242262Y-91740238D02*
X153385119Y-91692619D01*
X153385119Y-91692619D02*
X153480357Y-91692619D01*
X153480357Y-91692619D02*
X153623214Y-91740238D01*
X153623214Y-91740238D02*
X153670833Y-91787857D01*
X154051786Y-91787857D02*
X154099405Y-91740238D01*
X154099405Y-91740238D02*
X154194643Y-91692619D01*
X154194643Y-91692619D02*
X154432738Y-91692619D01*
X154432738Y-91692619D02*
X154527976Y-91740238D01*
X154527976Y-91740238D02*
X154575595Y-91787857D01*
X154575595Y-91787857D02*
X154623214Y-91883095D01*
X154623214Y-91883095D02*
X154623214Y-91978333D01*
X154623214Y-91978333D02*
X154575595Y-92121190D01*
X154575595Y-92121190D02*
X154004167Y-92692619D01*
X154004167Y-92692619D02*
X154623214Y-92692619D01*
%TO.C,C1*%
X144613333Y-92667380D02*
X144565714Y-92715000D01*
X144565714Y-92715000D02*
X144422857Y-92762619D01*
X144422857Y-92762619D02*
X144327619Y-92762619D01*
X144327619Y-92762619D02*
X144184762Y-92715000D01*
X144184762Y-92715000D02*
X144089524Y-92619761D01*
X144089524Y-92619761D02*
X144041905Y-92524523D01*
X144041905Y-92524523D02*
X143994286Y-92334047D01*
X143994286Y-92334047D02*
X143994286Y-92191190D01*
X143994286Y-92191190D02*
X144041905Y-92000714D01*
X144041905Y-92000714D02*
X144089524Y-91905476D01*
X144089524Y-91905476D02*
X144184762Y-91810238D01*
X144184762Y-91810238D02*
X144327619Y-91762619D01*
X144327619Y-91762619D02*
X144422857Y-91762619D01*
X144422857Y-91762619D02*
X144565714Y-91810238D01*
X144565714Y-91810238D02*
X144613333Y-91857857D01*
X145565714Y-92762619D02*
X144994286Y-92762619D01*
X145280000Y-92762619D02*
X145280000Y-91762619D01*
X145280000Y-91762619D02*
X145184762Y-91905476D01*
X145184762Y-91905476D02*
X145089524Y-92000714D01*
X145089524Y-92000714D02*
X144994286Y-92048333D01*
D11*
%TO.C,U1*%
X154370000Y-84550000D02*
X156320000Y-84550000D01*
X154370000Y-84550000D02*
X150920000Y-84550000D01*
X154370000Y-89670000D02*
X152420000Y-89670000D01*
X154370000Y-89670000D02*
X156320000Y-89670000D01*
%TO.C,R4*%
X161825000Y-88672936D02*
X161825000Y-89127064D01*
X163295000Y-88672936D02*
X163295000Y-89127064D01*
%TO.C,R3*%
X145515000Y-86132936D02*
X145515000Y-86587064D01*
X144045000Y-86132936D02*
X144045000Y-86587064D01*
%TO.C,R2*%
X161825000Y-83592936D02*
X161825000Y-84047064D01*
X163295000Y-83592936D02*
X163295000Y-84047064D01*
%TO.C,R1*%
X145515000Y-81052936D02*
X145515000Y-81507064D01*
X144045000Y-81052936D02*
X144045000Y-81507064D01*
%TO.C,J1*%
X155220000Y-68650000D02*
X155220000Y-72070000D01*
X156290000Y-68070000D02*
X156290000Y-73070000D01*
X151010000Y-72070000D02*
X156290000Y-72070000D01*
X156290000Y-75270000D02*
X156290000Y-73070000D01*
X154900000Y-68570000D02*
X155220000Y-68650000D01*
X155220000Y-72070000D02*
X154900000Y-72070000D01*
X153570000Y-73070000D02*
X153730000Y-73070000D01*
X152400000Y-75160000D02*
X152100000Y-75760000D01*
X157510000Y-66850000D02*
X157510000Y-75270000D01*
X151010000Y-68070000D02*
X151010000Y-73070000D01*
X149790000Y-68070000D02*
X151010000Y-68070000D01*
X152400000Y-72070000D02*
X152080000Y-72070000D01*
X152100000Y-75760000D02*
X152700000Y-75760000D01*
X152080000Y-72070000D02*
X152080000Y-68650000D01*
X152700000Y-75760000D02*
X152400000Y-75160000D01*
X152400000Y-68570000D02*
X152720000Y-68650000D01*
X151010000Y-75270000D02*
X149790000Y-75270000D01*
X154900000Y-72070000D02*
X154580000Y-72070000D01*
X157510000Y-75270000D02*
X156290000Y-75270000D01*
X149790000Y-66850000D02*
X157510000Y-66850000D01*
X154580000Y-68650000D02*
X154900000Y-68570000D01*
X152080000Y-68650000D02*
X152400000Y-68570000D01*
X149790000Y-75270000D02*
X149790000Y-66850000D01*
X152720000Y-72070000D02*
X152400000Y-72070000D01*
X156290000Y-73070000D02*
X157510000Y-73070000D01*
X151010000Y-73070000D02*
X149790000Y-73070000D01*
X152720000Y-68650000D02*
X152720000Y-72070000D01*
X157510000Y-68070000D02*
X156290000Y-68070000D01*
X151010000Y-73070000D02*
X151010000Y-75270000D01*
X154580000Y-72070000D02*
X154580000Y-68650000D01*
%TO.C,D2*%
X161425000Y-92380000D02*
X161425000Y-96440000D01*
X161425000Y-96440000D02*
X163695000Y-96440000D01*
X163695000Y-96440000D02*
X163695000Y-92380000D01*
%TO.C,D1*%
X163695000Y-81200000D02*
X163695000Y-77140000D01*
X161425000Y-81200000D02*
X163695000Y-81200000D01*
X161425000Y-77140000D02*
X161425000Y-81200000D01*
%TO.C,C2*%
X151352500Y-93045000D02*
X151352500Y-94915000D01*
X155437500Y-93045000D02*
X151352500Y-93045000D01*
X151352500Y-94915000D02*
X155437500Y-94915000D01*
%TO.C,C1*%
X144518748Y-93245000D02*
X145041252Y-93245000D01*
X144518748Y-94715000D02*
X145041252Y-94715000D01*
%TD*%
M02*
