%TF.GenerationSoftware,KiCad,Pcbnew,7.0.1*%
%TF.CreationDate,2023-04-12T17:20:58-07:00*%
%TF.ProjectId,Lab 3,4c616220-332e-46b6-9963-61645f706362,rev?*%
%TF.SameCoordinates,Original*%
%TF.FileFunction,Copper,L1,Top*%
%TF.FilePolarity,Positive*%
%FSLAX46Y46*%
G04 Gerber Fmt 4.6, Leading zero omitted, Abs format (unit mm)*
G04 Created by KiCad (PCBNEW 7.0.1) date 2023-04-12 17:20:58*
%MOMM*%
%LPD*%
G01*
G04 APERTURE LIST*
G04 Aperture macros list*
%AMRoundRect*
0 Rectangle with rounded corners*
0 $1 Rounding radius*
0 $2 $3 $4 $5 $6 $7 $8 $9 X,Y pos of 4 corners*
0 Add a 4 corners polygon primitive as box body*
4,1,4,$2,$3,$4,$5,$6,$7,$8,$9,$2,$3,0*
0 Add four circle primitives for the rounded corners*
1,1,$1+$1,$2,$3*
1,1,$1+$1,$4,$5*
1,1,$1+$1,$6,$7*
1,1,$1+$1,$8,$9*
0 Add four rect primitives between the rounded corners*
20,1,$1+$1,$2,$3,$4,$5,0*
20,1,$1+$1,$4,$5,$6,$7,0*
20,1,$1+$1,$6,$7,$8,$9,0*
20,1,$1+$1,$8,$9,$2,$3,0*%
G04 Aperture macros list end*
%TA.AperFunction,SMDPad,CuDef*%
%ADD10RoundRect,0.150000X-0.825000X-0.150000X0.825000X-0.150000X0.825000X0.150000X-0.825000X0.150000X0*%
%TD*%
%TA.AperFunction,SMDPad,CuDef*%
%ADD11R,2.290000X3.000000*%
%TD*%
%TA.AperFunction,SMDPad,CuDef*%
%ADD12RoundRect,0.250000X-0.450000X0.350000X-0.450000X-0.350000X0.450000X-0.350000X0.450000X0.350000X0*%
%TD*%
%TA.AperFunction,ComponentPad*%
%ADD13RoundRect,0.250000X-0.600000X-0.750000X0.600000X-0.750000X0.600000X0.750000X-0.600000X0.750000X0*%
%TD*%
%TA.AperFunction,ComponentPad*%
%ADD14O,1.700000X2.000000*%
%TD*%
%TA.AperFunction,SMDPad,CuDef*%
%ADD15RoundRect,0.250001X0.624999X-0.462499X0.624999X0.462499X-0.624999X0.462499X-0.624999X-0.462499X0*%
%TD*%
%TA.AperFunction,SMDPad,CuDef*%
%ADD16RoundRect,0.250000X-0.537500X-0.425000X0.537500X-0.425000X0.537500X0.425000X-0.537500X0.425000X0*%
%TD*%
%TA.AperFunction,SMDPad,CuDef*%
%ADD17RoundRect,0.250000X-0.337500X-0.475000X0.337500X-0.475000X0.337500X0.475000X-0.337500X0.475000X0*%
%TD*%
%TA.AperFunction,ViaPad*%
%ADD18C,0.800000*%
%TD*%
%TA.AperFunction,Conductor*%
%ADD19C,0.250000*%
%TD*%
G04 APERTURE END LIST*
D10*
%TO.P,U1,1,GND*%
%TO.N,GND*%
X151895000Y-85205000D03*
%TO.P,U1,2,TR*%
%TO.N,/pin_2*%
X151895000Y-86475000D03*
%TO.P,U1,3,Q*%
%TO.N,/pin_3*%
X151895000Y-87745000D03*
%TO.P,U1,4,R*%
%TO.N,+9V*%
X151895000Y-89015000D03*
%TO.P,U1,5,CV*%
%TO.N,Net-(U1-CV)*%
X156845000Y-89015000D03*
%TO.P,U1,6,THR*%
%TO.N,/pin_2*%
X156845000Y-87745000D03*
%TO.P,U1,7,DIS*%
%TO.N,/pin_7*%
X156845000Y-86475000D03*
%TO.P,U1,8,VCC*%
%TO.N,+9V*%
X156845000Y-85205000D03*
D11*
%TO.P,U1,9*%
%TO.N,N/C*%
X154370000Y-87110000D03*
%TD*%
D12*
%TO.P,R4,2*%
%TO.N,Net-(D2-A)*%
X162560000Y-89900000D03*
%TO.P,R4,1*%
%TO.N,/pin_3*%
X162560000Y-87900000D03*
%TD*%
%TO.P,R3,1*%
%TO.N,/pin_7*%
X144780000Y-85360000D03*
%TO.P,R3,2*%
%TO.N,/pin_2*%
X144780000Y-87360000D03*
%TD*%
%TO.P,R2,2*%
%TO.N,/pin_3*%
X162560000Y-84820000D03*
%TO.P,R2,1*%
%TO.N,Net-(D1-K)*%
X162560000Y-82820000D03*
%TD*%
%TO.P,R1,1*%
%TO.N,+9V*%
X144780000Y-80280000D03*
%TO.P,R1,2*%
%TO.N,/pin_7*%
X144780000Y-82280000D03*
%TD*%
D13*
%TO.P,J1,1,Pin_1*%
%TO.N,+9V*%
X152400000Y-73660000D03*
D14*
%TO.P,J1,2,Pin_2*%
%TO.N,GND*%
X154900000Y-73660000D03*
%TD*%
D15*
%TO.P,D2,2,A*%
%TO.N,Net-(D2-A)*%
X162560000Y-92492500D03*
%TO.P,D2,1,K*%
%TO.N,GND*%
X162560000Y-95467500D03*
%TD*%
%TO.P,D1,1,K*%
%TO.N,Net-(D1-K)*%
X162560000Y-80227500D03*
%TO.P,D1,2,A*%
%TO.N,+9V*%
X162560000Y-77252500D03*
%TD*%
D16*
%TO.P,C2,1*%
%TO.N,/pin_2*%
X152400000Y-93980000D03*
%TO.P,C2,2*%
%TO.N,GND*%
X155275000Y-93980000D03*
%TD*%
D17*
%TO.P,C1,1*%
%TO.N,Net-(U1-CV)*%
X143742500Y-93980000D03*
%TO.P,C1,2*%
%TO.N,GND*%
X145817500Y-93980000D03*
%TD*%
D18*
%TO.N,/pin_7*%
X147320000Y-83820000D03*
%TO.N,/pin_2*%
X149860000Y-93980000D03*
X157480000Y-78740000D03*
%TO.N,/pin_7*%
X157480000Y-81280000D03*
%TO.N,Net-(U1-CV)*%
X144780000Y-91440000D03*
X154940000Y-91440000D03*
%TO.N,GND*%
X147320000Y-91440000D03*
X154940000Y-81280000D03*
%TD*%
D19*
%TO.N,/pin_2*%
X149860000Y-93980000D02*
X152400000Y-93980000D01*
%TO.N,/pin_7*%
X147320000Y-83820000D02*
X144780000Y-83820000D01*
X144780000Y-83820000D02*
X144780000Y-85360000D01*
X144780000Y-82280000D02*
X144780000Y-83820000D01*
%TO.N,/pin_2*%
X158595000Y-79855000D02*
X157480000Y-78740000D01*
X158595000Y-86371751D02*
X158595000Y-79855000D01*
X157221751Y-87745000D02*
X158595000Y-86371751D01*
X156845000Y-87745000D02*
X157221751Y-87745000D01*
%TO.N,/pin_7*%
X158145000Y-81945000D02*
X157480000Y-81280000D01*
X158145000Y-85551751D02*
X158145000Y-81945000D01*
X157221751Y-86475000D02*
X158145000Y-85551751D01*
X156845000Y-86475000D02*
X157221751Y-86475000D01*
%TO.N,+9V*%
X155665000Y-82005000D02*
X155665000Y-76925000D01*
X157480000Y-83820000D02*
X155665000Y-82005000D01*
X157480000Y-84570000D02*
X157480000Y-83820000D01*
X156845000Y-85205000D02*
X157480000Y-84570000D01*
X155665000Y-76925000D02*
X152400000Y-73660000D01*
%TO.N,Net-(U1-CV)*%
X144780000Y-92942500D02*
X143742500Y-93980000D01*
X144780000Y-91440000D02*
X144780000Y-92942500D01*
X154940000Y-90920000D02*
X154940000Y-91440000D01*
X156845000Y-89015000D02*
X154940000Y-90920000D01*
%TO.N,+9V*%
X152222792Y-92530000D02*
X157293604Y-92530000D01*
X151045000Y-91352208D02*
X152222792Y-92530000D01*
X157293604Y-92530000D02*
X160020000Y-89803604D01*
X151045000Y-89865000D02*
X151045000Y-91352208D01*
X160020000Y-89803604D02*
X160020000Y-77252500D01*
X151895000Y-89015000D02*
X151045000Y-89865000D01*
X162560000Y-77252500D02*
X160020000Y-77252500D01*
X160020000Y-77252500D02*
X155992500Y-77252500D01*
%TO.N,/pin_3*%
X157480000Y-92980000D02*
X162560000Y-87900000D01*
X150595000Y-91538604D02*
X152036396Y-92980000D01*
X150595000Y-88165000D02*
X150595000Y-91538604D01*
X151015000Y-87745000D02*
X150595000Y-88165000D01*
X151895000Y-87745000D02*
X151015000Y-87745000D01*
X152036396Y-92980000D02*
X157480000Y-92980000D01*
%TO.N,GND*%
X147320000Y-92477500D02*
X147320000Y-91440000D01*
X145817500Y-93980000D02*
X147320000Y-92477500D01*
X147305000Y-95467500D02*
X145817500Y-93980000D01*
X156762500Y-95467500D02*
X147305000Y-95467500D01*
X151895000Y-85205000D02*
X151895000Y-84325000D01*
X151895000Y-84325000D02*
X154940000Y-81280000D01*
%TO.N,+9V*%
X155992500Y-77252500D02*
X152400000Y-73660000D01*
%TO.N,GND*%
X156762500Y-95467500D02*
X155275000Y-93980000D01*
X162560000Y-95467500D02*
X156762500Y-95467500D01*
%TO.N,/pin_2*%
X144780000Y-87360000D02*
X145665000Y-86475000D01*
X145665000Y-86475000D02*
X151895000Y-86475000D01*
X151518249Y-86475000D02*
X151895000Y-86475000D01*
X150145000Y-87848249D02*
X151518249Y-86475000D01*
X152400000Y-93980000D02*
X150145000Y-91725000D01*
X150145000Y-91725000D02*
X150145000Y-87848249D01*
%TO.N,Net-(D2-A)*%
X162560000Y-89900000D02*
X162560000Y-92492500D01*
%TO.N,/pin_3*%
X162560000Y-84820000D02*
X162560000Y-87900000D01*
%TO.N,Net-(D1-K)*%
X162560000Y-80227500D02*
X162560000Y-82820000D01*
%TO.N,+9V*%
X151400000Y-73660000D02*
X152400000Y-73660000D01*
X144780000Y-80280000D02*
X151400000Y-73660000D01*
%TD*%
%TA.AperFunction,NonConductor*%
G36*
X159332500Y-77894613D02*
G01*
X159377887Y-77940000D01*
X159394500Y-78002000D01*
X159394500Y-79524833D01*
X159378024Y-79586595D01*
X159332975Y-79631944D01*
X159271324Y-79648830D01*
X159209454Y-79632765D01*
X159163806Y-79588019D01*
X159163456Y-79587428D01*
X159154860Y-79569895D01*
X159147486Y-79551268D01*
X159121813Y-79515932D01*
X159115402Y-79506172D01*
X159093169Y-79468578D01*
X159079006Y-79454415D01*
X159066369Y-79439620D01*
X159054595Y-79423414D01*
X159054594Y-79423413D01*
X159020935Y-79395568D01*
X159012305Y-79387714D01*
X158418960Y-78794369D01*
X158394720Y-78760071D01*
X158383321Y-78719655D01*
X158365674Y-78551744D01*
X158316309Y-78399814D01*
X158307179Y-78371715D01*
X158212533Y-78207783D01*
X158101953Y-78084972D01*
X158074671Y-78035346D01*
X158072299Y-77978765D01*
X158095333Y-77927030D01*
X158138968Y-77890932D01*
X158194103Y-77878000D01*
X159270500Y-77878000D01*
X159332500Y-77894613D01*
G37*
%TD.AperFunction*%
%TA.AperFunction,NonConductor*%
G36*
X156821032Y-77890932D02*
G01*
X156864667Y-77927030D01*
X156887701Y-77978765D01*
X156885329Y-78035346D01*
X156858047Y-78084972D01*
X156747466Y-78207783D01*
X156652820Y-78371715D01*
X156594326Y-78551742D01*
X156574540Y-78740000D01*
X156594326Y-78928257D01*
X156652820Y-79108284D01*
X156747466Y-79272216D01*
X156874129Y-79412889D01*
X157027269Y-79524151D01*
X157200197Y-79601144D01*
X157385352Y-79640500D01*
X157385354Y-79640500D01*
X157444548Y-79640500D01*
X157492001Y-79649939D01*
X157532229Y-79676819D01*
X157933181Y-80077772D01*
X157960061Y-80118000D01*
X157969500Y-80165453D01*
X157969500Y-80321276D01*
X157954473Y-80380444D01*
X157913035Y-80425271D01*
X157855228Y-80444894D01*
X157795064Y-80434555D01*
X157759802Y-80418855D01*
X157574648Y-80379500D01*
X157574646Y-80379500D01*
X157385354Y-80379500D01*
X157385352Y-80379500D01*
X157200197Y-80418855D01*
X157027269Y-80495848D01*
X156874129Y-80607110D01*
X156747466Y-80747783D01*
X156652820Y-80911715D01*
X156594326Y-81091742D01*
X156574540Y-81280000D01*
X156594326Y-81468257D01*
X156652820Y-81648284D01*
X156747466Y-81812216D01*
X156874129Y-81952889D01*
X157027269Y-82064151D01*
X157200197Y-82141144D01*
X157385352Y-82180500D01*
X157385354Y-82180500D01*
X157395500Y-82180500D01*
X157457500Y-82197113D01*
X157502887Y-82242500D01*
X157519500Y-82304500D01*
X157519500Y-82675548D01*
X157505985Y-82731843D01*
X157468385Y-82775866D01*
X157414898Y-82798021D01*
X157357182Y-82793479D01*
X157307819Y-82763229D01*
X156898412Y-82353822D01*
X156326819Y-81782228D01*
X156299939Y-81742000D01*
X156290500Y-81694547D01*
X156290500Y-78002000D01*
X156307113Y-77940000D01*
X156352500Y-77894613D01*
X156414500Y-77878000D01*
X156765897Y-77878000D01*
X156821032Y-77890932D01*
G37*
%TD.AperFunction*%
%TA.AperFunction,NonConductor*%
G36*
X155040963Y-82203430D02*
G01*
X155079616Y-82243950D01*
X155096579Y-82272634D01*
X155105136Y-82290100D01*
X155112514Y-82308732D01*
X155123066Y-82323256D01*
X155138180Y-82344059D01*
X155144593Y-82353822D01*
X155166826Y-82391416D01*
X155166829Y-82391419D01*
X155166830Y-82391420D01*
X155180995Y-82405585D01*
X155193627Y-82420375D01*
X155205406Y-82436587D01*
X155239058Y-82464426D01*
X155247699Y-82472289D01*
X156818181Y-84042771D01*
X156845061Y-84082999D01*
X156854500Y-84130452D01*
X156854500Y-84259548D01*
X156845061Y-84307001D01*
X156818181Y-84347229D01*
X156797229Y-84368181D01*
X156757001Y-84395061D01*
X156709548Y-84404500D01*
X155954306Y-84404500D01*
X155942014Y-84405467D01*
X155917427Y-84407402D01*
X155759602Y-84453255D01*
X155618134Y-84536919D01*
X155501919Y-84653134D01*
X155418255Y-84794602D01*
X155372402Y-84952427D01*
X155369118Y-84994162D01*
X155367219Y-84994012D01*
X155352887Y-85047500D01*
X155307500Y-85092887D01*
X155245500Y-85109500D01*
X154370000Y-85109500D01*
X153494499Y-85109500D01*
X153432500Y-85092888D01*
X153387113Y-85047501D01*
X153372780Y-84994012D01*
X153370882Y-84994162D01*
X153370500Y-84989306D01*
X153367598Y-84952431D01*
X153339931Y-84857203D01*
X153321744Y-84794602D01*
X153277920Y-84720500D01*
X153238081Y-84653135D01*
X153121865Y-84536919D01*
X153121864Y-84536918D01*
X152980397Y-84453255D01*
X152926760Y-84437672D01*
X152872307Y-84404889D01*
X152841251Y-84349433D01*
X152841750Y-84285876D01*
X152873672Y-84230917D01*
X154885204Y-82219386D01*
X154932718Y-82189754D01*
X154988425Y-82184047D01*
X155040963Y-82203430D01*
G37*
%TD.AperFunction*%
%TA.AperFunction,NonConductor*%
G36*
X151224289Y-74895657D02*
G01*
X151312666Y-74984034D01*
X151331345Y-75002713D01*
X151406005Y-75048763D01*
X151480666Y-75094814D01*
X151592017Y-75131712D01*
X151647202Y-75149999D01*
X151657702Y-75151071D01*
X151749991Y-75160500D01*
X152964546Y-75160499D01*
X153011999Y-75169938D01*
X153052227Y-75196818D01*
X155003181Y-77147772D01*
X155030061Y-77188000D01*
X155039500Y-77235453D01*
X155039500Y-80255500D01*
X155022887Y-80317500D01*
X154977500Y-80362887D01*
X154915500Y-80379500D01*
X154845352Y-80379500D01*
X154660197Y-80418855D01*
X154487269Y-80495848D01*
X154334129Y-80607110D01*
X154207466Y-80747783D01*
X154112820Y-80911715D01*
X154054326Y-81091742D01*
X154036679Y-81259649D01*
X154025279Y-81300070D01*
X154001039Y-81334368D01*
X151511208Y-83824199D01*
X151495110Y-83837096D01*
X151447096Y-83888225D01*
X151444391Y-83891017D01*
X151424874Y-83910534D01*
X151422415Y-83913705D01*
X151414842Y-83922572D01*
X151384935Y-83954420D01*
X151375285Y-83971974D01*
X151364609Y-83988228D01*
X151352326Y-84004063D01*
X151334975Y-84044158D01*
X151329838Y-84054644D01*
X151308802Y-84092907D01*
X151303821Y-84112309D01*
X151297520Y-84130711D01*
X151289561Y-84149102D01*
X151282728Y-84192242D01*
X151280360Y-84203674D01*
X151269500Y-84245978D01*
X151269500Y-84266016D01*
X151267973Y-84285414D01*
X151265679Y-84299898D01*
X151243524Y-84353385D01*
X151199501Y-84390985D01*
X151143206Y-84404500D01*
X151004306Y-84404500D01*
X150992014Y-84405467D01*
X150967427Y-84407402D01*
X150809602Y-84453255D01*
X150668134Y-84536919D01*
X150551919Y-84653134D01*
X150468255Y-84794602D01*
X150422402Y-84952427D01*
X150419500Y-84989308D01*
X150419500Y-85420692D01*
X150422402Y-85457572D01*
X150468255Y-85615397D01*
X150496040Y-85662379D01*
X150513304Y-85724526D01*
X150497018Y-85786937D01*
X150451589Y-85832725D01*
X150389308Y-85849500D01*
X146104500Y-85849500D01*
X146042500Y-85832887D01*
X145997113Y-85787500D01*
X145980500Y-85725500D01*
X145980499Y-84959991D01*
X145969999Y-84857203D01*
X145949255Y-84794602D01*
X145914814Y-84690666D01*
X145880230Y-84634596D01*
X145861798Y-84572204D01*
X145877492Y-84509068D01*
X145922990Y-84462566D01*
X145985769Y-84445500D01*
X146616253Y-84445500D01*
X146666688Y-84456220D01*
X146708401Y-84486526D01*
X146714129Y-84492888D01*
X146867270Y-84604151D01*
X146867271Y-84604151D01*
X146867272Y-84604152D01*
X147040197Y-84681144D01*
X147225352Y-84720500D01*
X147225354Y-84720500D01*
X147414646Y-84720500D01*
X147414648Y-84720500D01*
X147555010Y-84690665D01*
X147599803Y-84681144D01*
X147772730Y-84604151D01*
X147772730Y-84604150D01*
X147925870Y-84492889D01*
X147931598Y-84486528D01*
X148052533Y-84352216D01*
X148147179Y-84188284D01*
X148205674Y-84008256D01*
X148225460Y-83820000D01*
X148205674Y-83631744D01*
X148147179Y-83451716D01*
X148147179Y-83451715D01*
X148052533Y-83287783D01*
X147925870Y-83147110D01*
X147772730Y-83035848D01*
X147599802Y-82958855D01*
X147414648Y-82919500D01*
X147414646Y-82919500D01*
X147225354Y-82919500D01*
X147225352Y-82919500D01*
X147040197Y-82958855D01*
X146867272Y-83035847D01*
X146780823Y-83098656D01*
X146714129Y-83147112D01*
X146708401Y-83153473D01*
X146666688Y-83183780D01*
X146616253Y-83194500D01*
X145985769Y-83194500D01*
X145922990Y-83177434D01*
X145877492Y-83130932D01*
X145861798Y-83067796D01*
X145880230Y-83005404D01*
X145881798Y-83002861D01*
X145914814Y-82949334D01*
X145969999Y-82782797D01*
X145980500Y-82680009D01*
X145980499Y-81879992D01*
X145969999Y-81777203D01*
X145914814Y-81610666D01*
X145826976Y-81468257D01*
X145822713Y-81461345D01*
X145791367Y-81429999D01*
X145729047Y-81367679D01*
X145696955Y-81312094D01*
X145696955Y-81247906D01*
X145729047Y-81192320D01*
X145822712Y-81098656D01*
X145914814Y-80949334D01*
X145969999Y-80782797D01*
X145980500Y-80680009D01*
X145980499Y-80015450D01*
X145989938Y-79967998D01*
X146016815Y-79927773D01*
X151048931Y-74895657D01*
X151104517Y-74863565D01*
X151168704Y-74863565D01*
X151224289Y-74895657D01*
G37*
%TD.AperFunction*%
%TA.AperFunction,NonConductor*%
G36*
X155307500Y-89127112D02*
G01*
X155352887Y-89172499D01*
X155367219Y-89225987D01*
X155369118Y-89225838D01*
X155372402Y-89267572D01*
X155418255Y-89425397D01*
X155418257Y-89425400D01*
X155434975Y-89476852D01*
X155428194Y-89530525D01*
X155399206Y-89576202D01*
X154556208Y-90419199D01*
X154540110Y-90432096D01*
X154492096Y-90483225D01*
X154489391Y-90486017D01*
X154469874Y-90505534D01*
X154467415Y-90508705D01*
X154459842Y-90517572D01*
X154429935Y-90549420D01*
X154420285Y-90566974D01*
X154409609Y-90583228D01*
X154397326Y-90599063D01*
X154379975Y-90639158D01*
X154374838Y-90649644D01*
X154353802Y-90687907D01*
X154348821Y-90707309D01*
X154342521Y-90725709D01*
X154329741Y-90755243D01*
X154325421Y-90769153D01*
X154305655Y-90798733D01*
X154207466Y-90907783D01*
X154112820Y-91071715D01*
X154054326Y-91251742D01*
X154034540Y-91439999D01*
X154054326Y-91628257D01*
X154091343Y-91742182D01*
X154095885Y-91799898D01*
X154073730Y-91853385D01*
X154029707Y-91890985D01*
X153973412Y-91904500D01*
X152533245Y-91904500D01*
X152485792Y-91895061D01*
X152445564Y-91868181D01*
X151706819Y-91129436D01*
X151679939Y-91089208D01*
X151670500Y-91041755D01*
X151670500Y-90175452D01*
X151679939Y-90127999D01*
X151706819Y-90087771D01*
X151942771Y-89851819D01*
X151982999Y-89824939D01*
X152030452Y-89815500D01*
X152785692Y-89815500D01*
X152785694Y-89815500D01*
X152822569Y-89812598D01*
X152980398Y-89766744D01*
X153121865Y-89683081D01*
X153238081Y-89566865D01*
X153321744Y-89425398D01*
X153367598Y-89267569D01*
X153370500Y-89230694D01*
X153370500Y-89230691D01*
X153370882Y-89225838D01*
X153372780Y-89225987D01*
X153387113Y-89172500D01*
X153432500Y-89127113D01*
X153494500Y-89110500D01*
X154370000Y-89110499D01*
X155245500Y-89110499D01*
X155307500Y-89127112D01*
G37*
%TD.AperFunction*%
%TA.AperFunction,NonConductor*%
G36*
X159331604Y-86590893D02*
G01*
X159377628Y-86636346D01*
X159394500Y-86698793D01*
X159394500Y-89493151D01*
X159385061Y-89540604D01*
X159358181Y-89580832D01*
X157070832Y-91868181D01*
X157030604Y-91895061D01*
X156983151Y-91904500D01*
X155906588Y-91904500D01*
X155850293Y-91890985D01*
X155806270Y-91853385D01*
X155784115Y-91799898D01*
X155788657Y-91742182D01*
X155814462Y-91662762D01*
X155825674Y-91628256D01*
X155845460Y-91440000D01*
X155825674Y-91251744D01*
X155767533Y-91072805D01*
X155764890Y-91005540D01*
X155797781Y-90946808D01*
X156892771Y-89851819D01*
X156933000Y-89824939D01*
X156980453Y-89815500D01*
X157735692Y-89815500D01*
X157735694Y-89815500D01*
X157772569Y-89812598D01*
X157930398Y-89766744D01*
X158071865Y-89683081D01*
X158188081Y-89566865D01*
X158271744Y-89425398D01*
X158317598Y-89267569D01*
X158320500Y-89230694D01*
X158320500Y-88799306D01*
X158317598Y-88762431D01*
X158304879Y-88718654D01*
X158271744Y-88604602D01*
X158180107Y-88449652D01*
X158181680Y-88448721D01*
X158160533Y-88412094D01*
X158160533Y-88347906D01*
X158181680Y-88311278D01*
X158180107Y-88310348D01*
X158188081Y-88296865D01*
X158271744Y-88155398D01*
X158317598Y-87997569D01*
X158320500Y-87960694D01*
X158320500Y-87582203D01*
X158329939Y-87534750D01*
X158356819Y-87494522D01*
X158646238Y-87205103D01*
X158978789Y-86872551D01*
X158994885Y-86859657D01*
X158996873Y-86857538D01*
X158996877Y-86857537D01*
X159042948Y-86808474D01*
X159045566Y-86805774D01*
X159065120Y-86786222D01*
X159067581Y-86783049D01*
X159075156Y-86774178D01*
X159105062Y-86742333D01*
X159114717Y-86724769D01*
X159125394Y-86708515D01*
X159137673Y-86692687D01*
X159155018Y-86652603D01*
X159160157Y-86642112D01*
X159161846Y-86639040D01*
X159206720Y-86592453D01*
X159268951Y-86574803D01*
X159331604Y-86590893D01*
G37*
%TD.AperFunction*%
%TA.AperFunction,NonConductor*%
G36*
X153925000Y-93622113D02*
G01*
X153970387Y-93667500D01*
X153987000Y-93729500D01*
X153987000Y-94455008D01*
X153997500Y-94557796D01*
X154013308Y-94605500D01*
X154037663Y-94678998D01*
X154042514Y-94736863D01*
X154020487Y-94790593D01*
X153976413Y-94828403D01*
X153919957Y-94842000D01*
X153755043Y-94842000D01*
X153698587Y-94828403D01*
X153654513Y-94790593D01*
X153632486Y-94736862D01*
X153637336Y-94678998D01*
X153677499Y-94557797D01*
X153688000Y-94455009D01*
X153687999Y-93729499D01*
X153704612Y-93667500D01*
X153749999Y-93622113D01*
X153811999Y-93605500D01*
X153863000Y-93605500D01*
X153925000Y-93622113D01*
G37*
%TD.AperFunction*%
%TA.AperFunction,NonConductor*%
G36*
X165037500Y-60977113D02*
G01*
X165082887Y-61022500D01*
X165099500Y-61084500D01*
X165099500Y-96395500D01*
X165082887Y-96457500D01*
X165037500Y-96502887D01*
X164975500Y-96519500D01*
X163925348Y-96519500D01*
X163862569Y-96502433D01*
X163817070Y-96455931D01*
X163801378Y-96392795D01*
X163819810Y-96330402D01*
X163869814Y-96249334D01*
X163924999Y-96082797D01*
X163935500Y-95980008D01*
X163935500Y-94954992D01*
X163924999Y-94852203D01*
X163921334Y-94841144D01*
X163869813Y-94685663D01*
X163777711Y-94536344D01*
X163653655Y-94412288D01*
X163504336Y-94320186D01*
X163337797Y-94265000D01*
X163235008Y-94254500D01*
X161884992Y-94254500D01*
X161782202Y-94265000D01*
X161615663Y-94320186D01*
X161466344Y-94412288D01*
X161342288Y-94536344D01*
X161250186Y-94685663D01*
X161226547Y-94757004D01*
X161200668Y-94801329D01*
X161159056Y-94831377D01*
X161108841Y-94842000D01*
X157072952Y-94842000D01*
X157025499Y-94832561D01*
X156985271Y-94805681D01*
X156599318Y-94419728D01*
X156572438Y-94379500D01*
X156562999Y-94332047D01*
X156562999Y-93729500D01*
X156579612Y-93667500D01*
X156624999Y-93622113D01*
X156686999Y-93605500D01*
X157397256Y-93605500D01*
X157417762Y-93607764D01*
X157420665Y-93607672D01*
X157420667Y-93607673D01*
X157487872Y-93605561D01*
X157491768Y-93605500D01*
X157519349Y-93605500D01*
X157519350Y-93605500D01*
X157523319Y-93604998D01*
X157534965Y-93604080D01*
X157578627Y-93602709D01*
X157597859Y-93597120D01*
X157616918Y-93593174D01*
X157623196Y-93592381D01*
X157636792Y-93590664D01*
X157677407Y-93574582D01*
X157688444Y-93570803D01*
X157730390Y-93558618D01*
X157747629Y-93548422D01*
X157765102Y-93539862D01*
X157783732Y-93532486D01*
X157819064Y-93506814D01*
X157828830Y-93500400D01*
X157866418Y-93478171D01*
X157866417Y-93478171D01*
X157866420Y-93478170D01*
X157880585Y-93464004D01*
X157895373Y-93451373D01*
X157911587Y-93439594D01*
X157939438Y-93405926D01*
X157947279Y-93397309D01*
X161147821Y-90196768D01*
X161197181Y-90166520D01*
X161254896Y-90161977D01*
X161308383Y-90184131D01*
X161345983Y-90228152D01*
X161359500Y-90284445D01*
X161359500Y-90300006D01*
X161370000Y-90402796D01*
X161425186Y-90569334D01*
X161517288Y-90718657D01*
X161641342Y-90842711D01*
X161641344Y-90842712D01*
X161790666Y-90934814D01*
X161849504Y-90954311D01*
X161893829Y-90980190D01*
X161923877Y-91021802D01*
X161934500Y-91072017D01*
X161934500Y-91162465D01*
X161919929Y-91220786D01*
X161879639Y-91265401D01*
X161823101Y-91285822D01*
X161817640Y-91286380D01*
X161782202Y-91290000D01*
X161615663Y-91345186D01*
X161466344Y-91437288D01*
X161342288Y-91561344D01*
X161250186Y-91710663D01*
X161195000Y-91877202D01*
X161184500Y-91979992D01*
X161184500Y-93005008D01*
X161195000Y-93107797D01*
X161250186Y-93274336D01*
X161342288Y-93423655D01*
X161466344Y-93547711D01*
X161615663Y-93639813D01*
X161782202Y-93694999D01*
X161884992Y-93705500D01*
X163235008Y-93705500D01*
X163337797Y-93694999D01*
X163420783Y-93667500D01*
X163504334Y-93639814D01*
X163559867Y-93605561D01*
X163653655Y-93547711D01*
X163777711Y-93423655D01*
X163869813Y-93274336D01*
X163897037Y-93192182D01*
X163924999Y-93107797D01*
X163935500Y-93005008D01*
X163935500Y-91979992D01*
X163924999Y-91877203D01*
X163922009Y-91868181D01*
X163869813Y-91710663D01*
X163777711Y-91561344D01*
X163653655Y-91437288D01*
X163504336Y-91345186D01*
X163337797Y-91290000D01*
X163302836Y-91286429D01*
X163296898Y-91285822D01*
X163240361Y-91265401D01*
X163200071Y-91220786D01*
X163185500Y-91162465D01*
X163185500Y-91072017D01*
X163196123Y-91021802D01*
X163226171Y-90980190D01*
X163270496Y-90954311D01*
X163329334Y-90934814D01*
X163478656Y-90842712D01*
X163602712Y-90718656D01*
X163694814Y-90569334D01*
X163749999Y-90402797D01*
X163760500Y-90300009D01*
X163760499Y-89499992D01*
X163749999Y-89397203D01*
X163694814Y-89230666D01*
X163648762Y-89156004D01*
X163602713Y-89081345D01*
X163602712Y-89081344D01*
X163509047Y-88987679D01*
X163476955Y-88932094D01*
X163476955Y-88867906D01*
X163509047Y-88812320D01*
X163602712Y-88718656D01*
X163694814Y-88569334D01*
X163749999Y-88402797D01*
X163760500Y-88300009D01*
X163760499Y-87499992D01*
X163758218Y-87477667D01*
X163749999Y-87397203D01*
X163733512Y-87347449D01*
X163694814Y-87230666D01*
X163622864Y-87114015D01*
X163602711Y-87081342D01*
X163478657Y-86957288D01*
X163329334Y-86865186D01*
X163270496Y-86845689D01*
X163226171Y-86819810D01*
X163196123Y-86778198D01*
X163185500Y-86727983D01*
X163185500Y-85992017D01*
X163196123Y-85941802D01*
X163226171Y-85900190D01*
X163270496Y-85874311D01*
X163329334Y-85854814D01*
X163478656Y-85762712D01*
X163602712Y-85638656D01*
X163694814Y-85489334D01*
X163749999Y-85322797D01*
X163760500Y-85220009D01*
X163760499Y-84419992D01*
X163758916Y-84404500D01*
X163749999Y-84317203D01*
X163737608Y-84279810D01*
X163694814Y-84150666D01*
X163606976Y-84008257D01*
X163602711Y-84001342D01*
X163509049Y-83907680D01*
X163476955Y-83852092D01*
X163476955Y-83787905D01*
X163509048Y-83732319D01*
X163602712Y-83638656D01*
X163694814Y-83489334D01*
X163749999Y-83322797D01*
X163760500Y-83220009D01*
X163760499Y-82419992D01*
X163749999Y-82317203D01*
X163694814Y-82150666D01*
X163602712Y-82001344D01*
X163602711Y-82001342D01*
X163478657Y-81877288D01*
X163329334Y-81785186D01*
X163270496Y-81765689D01*
X163226171Y-81739810D01*
X163196123Y-81698198D01*
X163185500Y-81647983D01*
X163185500Y-81557535D01*
X163200071Y-81499214D01*
X163240361Y-81454599D01*
X163296898Y-81434177D01*
X163337797Y-81429999D01*
X163504334Y-81374814D01*
X163653655Y-81282711D01*
X163777711Y-81158655D01*
X163869814Y-81009334D01*
X163924999Y-80842797D01*
X163935500Y-80740008D01*
X163935500Y-79714992D01*
X163924999Y-79612203D01*
X163924489Y-79610665D01*
X163869813Y-79445663D01*
X163777711Y-79296344D01*
X163653655Y-79172288D01*
X163504336Y-79080186D01*
X163337797Y-79025000D01*
X163235008Y-79014500D01*
X161884992Y-79014500D01*
X161782202Y-79025000D01*
X161615663Y-79080186D01*
X161466344Y-79172288D01*
X161342288Y-79296344D01*
X161250186Y-79445663D01*
X161195000Y-79612202D01*
X161184500Y-79714992D01*
X161184500Y-80740008D01*
X161195000Y-80842797D01*
X161250186Y-81009336D01*
X161342288Y-81158655D01*
X161466344Y-81282711D01*
X161615663Y-81374813D01*
X161782202Y-81429999D01*
X161797564Y-81431568D01*
X161823101Y-81434177D01*
X161879639Y-81454599D01*
X161919929Y-81499214D01*
X161934500Y-81557535D01*
X161934500Y-81647983D01*
X161923877Y-81698198D01*
X161893829Y-81739810D01*
X161849504Y-81765689D01*
X161790665Y-81785186D01*
X161641342Y-81877288D01*
X161517288Y-82001342D01*
X161425186Y-82150665D01*
X161370000Y-82317202D01*
X161359500Y-82419990D01*
X161359500Y-83220008D01*
X161370000Y-83322796D01*
X161425186Y-83489334D01*
X161517286Y-83638654D01*
X161517287Y-83638655D01*
X161517288Y-83638656D01*
X161610951Y-83732319D01*
X161643044Y-83787905D01*
X161643044Y-83852092D01*
X161610951Y-83907680D01*
X161517287Y-84001344D01*
X161425186Y-84150665D01*
X161370000Y-84317202D01*
X161359500Y-84419990D01*
X161359500Y-85220008D01*
X161370000Y-85322796D01*
X161425186Y-85489334D01*
X161517288Y-85638657D01*
X161641342Y-85762711D01*
X161641344Y-85762712D01*
X161790666Y-85854814D01*
X161849504Y-85874311D01*
X161893829Y-85900190D01*
X161923877Y-85941802D01*
X161934500Y-85992017D01*
X161934500Y-86727983D01*
X161923877Y-86778198D01*
X161893829Y-86819810D01*
X161849504Y-86845689D01*
X161790665Y-86865186D01*
X161641342Y-86957288D01*
X161517288Y-87081342D01*
X161425186Y-87230665D01*
X161370000Y-87397202D01*
X161359500Y-87499991D01*
X161359500Y-88164546D01*
X161350061Y-88211999D01*
X161323181Y-88252227D01*
X160857181Y-88718228D01*
X160807818Y-88748478D01*
X160750102Y-88753020D01*
X160696615Y-88730865D01*
X160659015Y-88686842D01*
X160645500Y-88630547D01*
X160645500Y-78002000D01*
X160662113Y-77940000D01*
X160707500Y-77894613D01*
X160769500Y-77878000D01*
X161108841Y-77878000D01*
X161159056Y-77888623D01*
X161200668Y-77918671D01*
X161226547Y-77962996D01*
X161250186Y-78034336D01*
X161342288Y-78183655D01*
X161466344Y-78307711D01*
X161615663Y-78399813D01*
X161782202Y-78454999D01*
X161884992Y-78465500D01*
X163235008Y-78465500D01*
X163337797Y-78454999D01*
X163337796Y-78454999D01*
X163504334Y-78399814D01*
X163653655Y-78307711D01*
X163777711Y-78183655D01*
X163869814Y-78034334D01*
X163924999Y-77867797D01*
X163935500Y-77765008D01*
X163935500Y-76739992D01*
X163924999Y-76637203D01*
X163920890Y-76624804D01*
X163869813Y-76470663D01*
X163777711Y-76321344D01*
X163653655Y-76197288D01*
X163504336Y-76105186D01*
X163337797Y-76050000D01*
X163235008Y-76039500D01*
X161884992Y-76039500D01*
X161782202Y-76050000D01*
X161615663Y-76105186D01*
X161466344Y-76197288D01*
X161342288Y-76321344D01*
X161250186Y-76470663D01*
X161226547Y-76542004D01*
X161200668Y-76586329D01*
X161159056Y-76616377D01*
X161108841Y-76627000D01*
X160099019Y-76627000D01*
X160090849Y-76627000D01*
X160067615Y-76624804D01*
X160059587Y-76623272D01*
X160004241Y-76626755D01*
X159996455Y-76627000D01*
X156302953Y-76627000D01*
X156255500Y-76617561D01*
X156215272Y-76590681D01*
X156149006Y-76524415D01*
X156136369Y-76509620D01*
X156124595Y-76493414D01*
X156124594Y-76493413D01*
X156090935Y-76465568D01*
X156082305Y-76457714D01*
X154987112Y-75362521D01*
X154953732Y-75301678D01*
X154958271Y-75232429D01*
X154999307Y-75176464D01*
X155063986Y-75151312D01*
X155116469Y-75146719D01*
X155135408Y-75145063D01*
X155363663Y-75083903D01*
X155577829Y-74984035D01*
X155771401Y-74848495D01*
X155938495Y-74681401D01*
X156074035Y-74487829D01*
X156173903Y-74273663D01*
X156235063Y-74045408D01*
X156250500Y-73868966D01*
X156250500Y-73451034D01*
X156235063Y-73274592D01*
X156173903Y-73046337D01*
X156074035Y-72832171D01*
X155938495Y-72638599D01*
X155771401Y-72471505D01*
X155577830Y-72335965D01*
X155363663Y-72236097D01*
X155302501Y-72219709D01*
X155135407Y-72174936D01*
X154900000Y-72154340D01*
X154664592Y-72174936D01*
X154436336Y-72236097D01*
X154222170Y-72335965D01*
X154028601Y-72471503D01*
X153881398Y-72618706D01*
X153834428Y-72648151D01*
X153779321Y-72654185D01*
X153727091Y-72635604D01*
X153688178Y-72596120D01*
X153592711Y-72441342D01*
X153468657Y-72317288D01*
X153319334Y-72225186D01*
X153152797Y-72170000D01*
X153050009Y-72159500D01*
X151749991Y-72159500D01*
X151647203Y-72170000D01*
X151480665Y-72225186D01*
X151331342Y-72317288D01*
X151207288Y-72441342D01*
X151115186Y-72590665D01*
X151060000Y-72757202D01*
X151049500Y-72859991D01*
X151049500Y-73074548D01*
X151040059Y-73122005D01*
X151013177Y-73162232D01*
X151002756Y-73172653D01*
X150999410Y-73175999D01*
X150984624Y-73188626D01*
X150968413Y-73200404D01*
X150940572Y-73234058D01*
X150932711Y-73242697D01*
X145032226Y-79143181D01*
X144991998Y-79170061D01*
X144944545Y-79179500D01*
X144279991Y-79179500D01*
X144177203Y-79190000D01*
X144010665Y-79245186D01*
X143861342Y-79337288D01*
X143737288Y-79461342D01*
X143645186Y-79610665D01*
X143590000Y-79777202D01*
X143579500Y-79879990D01*
X143579500Y-80680008D01*
X143590000Y-80782796D01*
X143645186Y-80949334D01*
X143737286Y-81098654D01*
X143737287Y-81098655D01*
X143737288Y-81098656D01*
X143830951Y-81192319D01*
X143863044Y-81247905D01*
X143863044Y-81312092D01*
X143830951Y-81367680D01*
X143737287Y-81461344D01*
X143645186Y-81610665D01*
X143590000Y-81777202D01*
X143579500Y-81879990D01*
X143579500Y-82680008D01*
X143590000Y-82782796D01*
X143645186Y-82949334D01*
X143737288Y-83098657D01*
X143861342Y-83222711D01*
X143861344Y-83222712D01*
X144010666Y-83314814D01*
X144069504Y-83334311D01*
X144113829Y-83360190D01*
X144143877Y-83401802D01*
X144154500Y-83452017D01*
X144154500Y-83749151D01*
X144152304Y-83772385D01*
X144150772Y-83780412D01*
X144154255Y-83835759D01*
X144154500Y-83843545D01*
X144154500Y-84187983D01*
X144143877Y-84238198D01*
X144113829Y-84279810D01*
X144069504Y-84305689D01*
X144010665Y-84325186D01*
X143861342Y-84417288D01*
X143737288Y-84541342D01*
X143645186Y-84690665D01*
X143590000Y-84857202D01*
X143579500Y-84959990D01*
X143579500Y-85760008D01*
X143590000Y-85862796D01*
X143645186Y-86029334D01*
X143737286Y-86178654D01*
X143737287Y-86178655D01*
X143737288Y-86178656D01*
X143830951Y-86272319D01*
X143863044Y-86327905D01*
X143863044Y-86392092D01*
X143830951Y-86447680D01*
X143737287Y-86541344D01*
X143645186Y-86690665D01*
X143590000Y-86857202D01*
X143579500Y-86959990D01*
X143579500Y-87760008D01*
X143590000Y-87862796D01*
X143645186Y-88029334D01*
X143737288Y-88178657D01*
X143861342Y-88302711D01*
X143917895Y-88337593D01*
X144010666Y-88394814D01*
X144122016Y-88431712D01*
X144177202Y-88449999D01*
X144187703Y-88451071D01*
X144279991Y-88460500D01*
X145280008Y-88460499D01*
X145382797Y-88449999D01*
X145549334Y-88394814D01*
X145698656Y-88302712D01*
X145822712Y-88178656D01*
X145914814Y-88029334D01*
X145969999Y-87862797D01*
X145980500Y-87760009D01*
X145980499Y-87224499D01*
X145997112Y-87162500D01*
X146042499Y-87117113D01*
X146104499Y-87100500D01*
X149708795Y-87100500D01*
X149765090Y-87114015D01*
X149809114Y-87151615D01*
X149831269Y-87205103D01*
X149826726Y-87262819D01*
X149796475Y-87312182D01*
X149761207Y-87347449D01*
X149745110Y-87360345D01*
X149697096Y-87411474D01*
X149694391Y-87414266D01*
X149674874Y-87433783D01*
X149672415Y-87436954D01*
X149664842Y-87445821D01*
X149634935Y-87477669D01*
X149625285Y-87495223D01*
X149614609Y-87511477D01*
X149602326Y-87527312D01*
X149584975Y-87567407D01*
X149579838Y-87577893D01*
X149558802Y-87616156D01*
X149553821Y-87635558D01*
X149547520Y-87653960D01*
X149539561Y-87672351D01*
X149532728Y-87715491D01*
X149530360Y-87726923D01*
X149519500Y-87769227D01*
X149519500Y-87789265D01*
X149517973Y-87808664D01*
X149514840Y-87828443D01*
X149518950Y-87871924D01*
X149519500Y-87883593D01*
X149519500Y-91642256D01*
X149517235Y-91662762D01*
X149519439Y-91732873D01*
X149519500Y-91736768D01*
X149519500Y-91764349D01*
X149520003Y-91768334D01*
X149520918Y-91779967D01*
X149522290Y-91823626D01*
X149527879Y-91842860D01*
X149531825Y-91861916D01*
X149534335Y-91881792D01*
X149550414Y-91922404D01*
X149554197Y-91933451D01*
X149566382Y-91975391D01*
X149576580Y-91992635D01*
X149585136Y-92010100D01*
X149592514Y-92028732D01*
X149592515Y-92028733D01*
X149618180Y-92064059D01*
X149624593Y-92073822D01*
X149646826Y-92111416D01*
X149646829Y-92111419D01*
X149646830Y-92111420D01*
X149660995Y-92125585D01*
X149673627Y-92140375D01*
X149685406Y-92156587D01*
X149719058Y-92184426D01*
X149727699Y-92192289D01*
X150678229Y-93142819D01*
X150708479Y-93192182D01*
X150713021Y-93249898D01*
X150690866Y-93303385D01*
X150646843Y-93340985D01*
X150590548Y-93354500D01*
X150563747Y-93354500D01*
X150513312Y-93343780D01*
X150471598Y-93313473D01*
X150465871Y-93307112D01*
X150312730Y-93195849D01*
X150312729Y-93195848D01*
X150312727Y-93195847D01*
X150139802Y-93118855D01*
X149954648Y-93079500D01*
X149954646Y-93079500D01*
X149765354Y-93079500D01*
X149765352Y-93079500D01*
X149580197Y-93118855D01*
X149407269Y-93195848D01*
X149254129Y-93307110D01*
X149127466Y-93447783D01*
X149032820Y-93611715D01*
X148974326Y-93791742D01*
X148954540Y-93980000D01*
X148974326Y-94168257D01*
X149032820Y-94348284D01*
X149127466Y-94512216D01*
X149238047Y-94635028D01*
X149265329Y-94684654D01*
X149267701Y-94741235D01*
X149244667Y-94792970D01*
X149201032Y-94829068D01*
X149145897Y-94842000D01*
X147615452Y-94842000D01*
X147567999Y-94832561D01*
X147527771Y-94805681D01*
X146941818Y-94219728D01*
X146914938Y-94179500D01*
X146905499Y-94132047D01*
X146905499Y-93827953D01*
X146914938Y-93780500D01*
X146941818Y-93740272D01*
X147284792Y-93397298D01*
X147703789Y-92978300D01*
X147719885Y-92965406D01*
X147721873Y-92963287D01*
X147721877Y-92963286D01*
X147767948Y-92914223D01*
X147770566Y-92911523D01*
X147790120Y-92891971D01*
X147792581Y-92888798D01*
X147800156Y-92879927D01*
X147830062Y-92848082D01*
X147839712Y-92830527D01*
X147850400Y-92814257D01*
X147862671Y-92798438D01*
X147862673Y-92798436D01*
X147880026Y-92758332D01*
X147885157Y-92747862D01*
X147886697Y-92745061D01*
X147906197Y-92709592D01*
X147911175Y-92690199D01*
X147917481Y-92671782D01*
X147919018Y-92668228D01*
X147925438Y-92653396D01*
X147932272Y-92610245D01*
X147934635Y-92598831D01*
X147945500Y-92556519D01*
X147945500Y-92536484D01*
X147947027Y-92517085D01*
X147950160Y-92497304D01*
X147946050Y-92453825D01*
X147945500Y-92442156D01*
X147945500Y-92138687D01*
X147953736Y-92094249D01*
X147977347Y-92055717D01*
X148052533Y-91972216D01*
X148097079Y-91895061D01*
X148147179Y-91808284D01*
X148158276Y-91774130D01*
X148205674Y-91628256D01*
X148225460Y-91440000D01*
X148205674Y-91251744D01*
X148175332Y-91158363D01*
X148147179Y-91071715D01*
X148052533Y-90907783D01*
X147925870Y-90767110D01*
X147772730Y-90655848D01*
X147599802Y-90578855D01*
X147414648Y-90539500D01*
X147414646Y-90539500D01*
X147225354Y-90539500D01*
X147225352Y-90539500D01*
X147040197Y-90578855D01*
X146867269Y-90655848D01*
X146714129Y-90767110D01*
X146587466Y-90907783D01*
X146492820Y-91071715D01*
X146434326Y-91251742D01*
X146414540Y-91439999D01*
X146434326Y-91628257D01*
X146492820Y-91808284D01*
X146587464Y-91972213D01*
X146605548Y-91992297D01*
X146662652Y-92055717D01*
X146686264Y-92094249D01*
X146694500Y-92138687D01*
X146694500Y-92167048D01*
X146685061Y-92214501D01*
X146658181Y-92254729D01*
X146194727Y-92718181D01*
X146154499Y-92745061D01*
X146107046Y-92754500D01*
X145910424Y-92754500D01*
X145529499Y-92754500D01*
X145467500Y-92737888D01*
X145422113Y-92692501D01*
X145405500Y-92630501D01*
X145405500Y-92138687D01*
X145413736Y-92094249D01*
X145437347Y-92055717D01*
X145512533Y-91972216D01*
X145557079Y-91895061D01*
X145607179Y-91808284D01*
X145618276Y-91774130D01*
X145665674Y-91628256D01*
X145685460Y-91440000D01*
X145665674Y-91251744D01*
X145635332Y-91158363D01*
X145607179Y-91071715D01*
X145512533Y-90907783D01*
X145385870Y-90767110D01*
X145232730Y-90655848D01*
X145059802Y-90578855D01*
X144874648Y-90539500D01*
X144874646Y-90539500D01*
X144685354Y-90539500D01*
X144685352Y-90539500D01*
X144500197Y-90578855D01*
X144327269Y-90655848D01*
X144174129Y-90767110D01*
X144047466Y-90907783D01*
X143952820Y-91071715D01*
X143894326Y-91251742D01*
X143874540Y-91439999D01*
X143894326Y-91628257D01*
X143952820Y-91808284D01*
X144047464Y-91972213D01*
X144065548Y-91992297D01*
X144122652Y-92055717D01*
X144146264Y-92094249D01*
X144154500Y-92138687D01*
X144154500Y-92630500D01*
X144137887Y-92692500D01*
X144092500Y-92737887D01*
X144030500Y-92754500D01*
X143354991Y-92754500D01*
X143252203Y-92765000D01*
X143085665Y-92820186D01*
X142936342Y-92912288D01*
X142812288Y-93036342D01*
X142720186Y-93185665D01*
X142665000Y-93352202D01*
X142654500Y-93454990D01*
X142654500Y-94505008D01*
X142665000Y-94607796D01*
X142720186Y-94774334D01*
X142812288Y-94923657D01*
X142936342Y-95047711D01*
X142936344Y-95047712D01*
X143085666Y-95139814D01*
X143197017Y-95176712D01*
X143252202Y-95194999D01*
X143262703Y-95196071D01*
X143354991Y-95205500D01*
X144130008Y-95205499D01*
X144232797Y-95194999D01*
X144399334Y-95139814D01*
X144548656Y-95047712D01*
X144672712Y-94923656D01*
X144674460Y-94920821D01*
X144719568Y-94877640D01*
X144780000Y-94861917D01*
X144840432Y-94877640D01*
X144885539Y-94920821D01*
X144887288Y-94923657D01*
X145011342Y-95047711D01*
X145011344Y-95047712D01*
X145160666Y-95139814D01*
X145272017Y-95176712D01*
X145327202Y-95194999D01*
X145337703Y-95196071D01*
X145429991Y-95205500D01*
X146107047Y-95205499D01*
X146154500Y-95214938D01*
X146194728Y-95241818D01*
X146804197Y-95851287D01*
X146817098Y-95867389D01*
X146819212Y-95869374D01*
X146819214Y-95869377D01*
X146866561Y-95913839D01*
X146868240Y-95915416D01*
X146871036Y-95918126D01*
X146890530Y-95937620D01*
X146893704Y-95940082D01*
X146902568Y-95947653D01*
X146934418Y-95977562D01*
X146944914Y-95983332D01*
X146951974Y-95987214D01*
X146968231Y-95997892D01*
X146984064Y-96010174D01*
X147000185Y-96017149D01*
X147024156Y-96027523D01*
X147034643Y-96032660D01*
X147072908Y-96053697D01*
X147092316Y-96058680D01*
X147110710Y-96064978D01*
X147129105Y-96072938D01*
X147172254Y-96079771D01*
X147183680Y-96082138D01*
X147186246Y-96082797D01*
X147225980Y-96093000D01*
X147225981Y-96093000D01*
X147246016Y-96093000D01*
X147265413Y-96094526D01*
X147285196Y-96097660D01*
X147328674Y-96093550D01*
X147340344Y-96093000D01*
X156683481Y-96093000D01*
X156703516Y-96093000D01*
X156722913Y-96094526D01*
X156742696Y-96097660D01*
X156786174Y-96093550D01*
X156797844Y-96093000D01*
X156801850Y-96093000D01*
X161108841Y-96093000D01*
X161159056Y-96103623D01*
X161200668Y-96133671D01*
X161226547Y-96177996D01*
X161250186Y-96249334D01*
X161300190Y-96330402D01*
X161318622Y-96392795D01*
X161302930Y-96455931D01*
X161257431Y-96502433D01*
X161194652Y-96519500D01*
X142364500Y-96519500D01*
X142302500Y-96502887D01*
X142257113Y-96457500D01*
X142240500Y-96395500D01*
X142240500Y-61084500D01*
X142257113Y-61022500D01*
X142302500Y-60977113D01*
X142364500Y-60960500D01*
X164975500Y-60960500D01*
X165037500Y-60977113D01*
G37*
%TD.AperFunction*%
M02*
